<svg width="20" height="21" viewBox="0 0 20 21" fill="none" xmlns="http://www.w3.org/2000/svg">
<path fill-rule="evenodd" clip-rule="evenodd" d="M12.5552 14.4467C12.5552 14.6456 12.4761 14.8363 12.3355 14.977C12.1948 15.1176 12.0041 15.1967 11.8052 15.1967C11.6062 15.1967 11.4155 15.1176 11.2748 14.977C11.1342 14.8363 11.0552 14.6456 11.0552 14.4467V10.275C11.0552 10.0761 11.1342 9.88531 11.2748 9.74466C11.4155 9.604 11.6062 9.52499 11.8052 9.52499C12.0041 9.52499 12.1948 9.604 12.3355 9.74466C12.4761 9.88531 12.5552 10.0761 12.5552 10.275V14.4467ZM9.111 14.4467C9.111 14.6456 9.03198 14.8363 8.89133 14.977C8.75067 15.1176 8.55991 15.1967 8.361 15.1967C8.16208 15.1967 7.97132 15.1176 7.83067 14.977C7.69001 14.8363 7.611 14.6456 7.611 14.4467V10.275C7.611 10.0761 7.69001 9.88531 7.83067 9.74466C7.97132 9.604 8.16208 9.52499 8.361 9.52499C8.55991 9.52499 8.75067 9.604 8.89133 9.74466C9.03198 9.88531 9.111 10.0761 9.111 10.275V14.4467ZM7.52433 3.71582C7.52433 3.49481 7.61213 3.28284 7.76841 3.12656C7.92469 2.97028 8.13665 2.88249 8.35766 2.88249H11.811C12.2702 2.88249 12.6443 3.25582 12.6443 3.71582V4.49999H7.52433V3.71582ZM16.916 4.49999H14.311V3.71582C14.311 2.33749 13.1902 1.21582 11.811 1.21582H8.35766C6.97933 1.21582 5.85766 2.33749 5.85766 3.71582V4.49999H3.0835C2.81828 4.49999 2.56393 4.60534 2.37639 4.79288C2.18885 4.98042 2.0835 5.23477 2.0835 5.49999V5.99999C2.0835 6.2652 2.18885 6.51956 2.37639 6.70709C2.56393 6.89463 2.81828 6.99999 3.0835 6.99999H3.19266L3.586 17.03C3.60645 17.5464 3.82605 18.0349 4.19875 18.393C4.57145 18.7511 5.06831 18.951 5.58516 18.9508H14.5818C15.0985 18.951 15.5952 18.751 15.9676 18.3929C16.3401 18.0348 16.5593 17.5463 16.5793 17.03L16.9743 6.98832C17.228 6.97532 17.4671 6.86564 17.6424 6.68181C17.8177 6.49799 17.9159 6.25399 17.9168 5.99999V5.49999C17.9168 4.94832 17.4685 4.49999 16.916 4.49999Z" fill="#FF5B5B"/>
</svg>
