<svg width="12" height="12" viewBox="0 0 12 12" fill="none" xmlns="http://www.w3.org/2000/svg">
<g id="ic_arrow_right">
<path id="Vector" fill-rule="evenodd" clip-rule="evenodd" d="M4.3124 10.05C4.1399 10.05 3.9674 9.98247 3.8324 9.85497C3.70645 9.72847 3.63574 9.55723 3.63574 9.37872C3.63574 9.20021 3.70645 9.02897 3.8324 8.90247L6.7349 5.99997L3.8324 3.10497C3.70645 2.97847 3.63574 2.80723 3.63574 2.62872C3.63574 2.45021 3.70645 2.27897 3.8324 2.15247C3.9589 2.02652 4.13014 1.95581 4.30865 1.95581C4.48716 1.95581 4.6584 2.02652 4.7849 2.15247L8.1599 5.52747C8.28585 5.65397 8.35656 5.82521 8.35656 6.00372C8.35656 6.18223 8.28585 6.35347 8.1599 6.47997L4.7849 9.85497C4.6574 9.98247 4.4849 10.05 4.3124 10.05Z" fill="#8B95A1"/>
</g>
</svg>
