<svg width="10" height="10" viewBox="0 0 10 10" fill="none" xmlns="http://www.w3.org/2000/svg">
<path fill-rule="evenodd" clip-rule="evenodd" d="M3.59379 8.37502C3.45004 8.37502 3.30629 8.31877 3.19379 8.21252C3.08883 8.1071 3.02991 7.9644 3.02991 7.81564C3.02991 7.66688 3.08883 7.52418 3.19379 7.41877L5.61254 5.00002L3.19379 2.58751C3.08883 2.4821 3.02991 2.3394 3.02991 2.19064C3.02991 2.04188 3.08883 1.89918 3.19379 1.79376C3.29921 1.68881 3.44191 1.62988 3.59066 1.62988C3.73942 1.62988 3.88212 1.68881 3.98754 1.79376L6.80004 4.60626C6.905 4.71168 6.96392 4.85438 6.96392 5.00314C6.96392 5.1519 6.905 5.2946 6.80004 5.40002L3.98754 8.21252C3.88129 8.31877 3.73754 8.37502 3.59379 8.37502Z" fill="#B5B9C6"/>
</svg>
