<svg xmlns="http://www.w3.org/2000/svg" width="16" height="16" viewBox="0 0 16 16" fill="none">
  <path fill-rule="evenodd" clip-rule="evenodd" d="M8.48385 0.510938L13.4672 5.77094C13.512 5.81824 13.542 5.87765 13.5534 5.94182C13.5649 6.00599 13.5572 6.0721 13.5315 6.13197C13.5057 6.19185 13.463 6.24286 13.4086 6.2787C13.3541 6.31453 13.2904 6.33362 13.2252 6.3336H2.77452C2.70934 6.33362 2.64558 6.31453 2.59114 6.2787C2.5367 6.24286 2.49396 6.19185 2.46821 6.13197C2.44245 6.0721 2.43482 6.00599 2.44625 5.94182C2.45768 5.87765 2.48767 5.81824 2.53252 5.77094L7.51585 0.510938C7.57815 0.445171 7.65319 0.39279 7.73641 0.356993C7.81962 0.321196 7.90926 0.302734 7.99985 0.302734C8.09044 0.302734 8.18008 0.321196 8.26329 0.356993C8.34651 0.39279 8.42155 0.445171 8.48385 0.510938ZM8.48385 15.4896L13.4672 10.2296C13.512 10.1823 13.542 10.1229 13.5534 10.0587C13.5649 9.99456 13.5572 9.92845 13.5315 9.86857C13.5057 9.8087 13.463 9.75768 13.4086 9.72185C13.3541 9.68601 13.2904 9.66692 13.2252 9.66694H2.77452C2.70934 9.66692 2.64558 9.68601 2.59114 9.72185C2.5367 9.75768 2.49396 9.8087 2.46821 9.86857C2.44245 9.92845 2.43482 9.99456 2.44625 10.0587C2.45768 10.1229 2.48767 10.1823 2.53252 10.2296L7.51585 15.4896C7.57815 15.5554 7.65319 15.6078 7.73641 15.6435C7.81962 15.6793 7.90926 15.6978 7.99985 15.6978C8.09044 15.6978 8.18008 15.6793 8.26329 15.6435C8.34651 15.6078 8.42155 15.5554 8.48385 15.4896Z" fill="#B5B9C6"/>
</svg>