<svg xmlns="http://www.w3.org/2000/svg" width="20" height="20" viewBox="0 0 20 20" fill="none">
  <path fill-rule="evenodd" clip-rule="evenodd" d="M10.8333 9.80083C10.8333 9.82833 10.82 9.8525 10.8175 9.87917C10.8128 9.93561 10.8013 9.99129 10.7833 10.045C10.7532 10.1446 10.7039 10.2375 10.6383 10.3183C10.6017 10.3625 10.5633 10.4017 10.5183 10.4383C10.4975 10.455 10.485 10.4792 10.4625 10.4942L6.52417 13.1192C6.34026 13.2371 6.11738 13.2782 5.90353 13.2334C5.68967 13.1887 5.50194 13.0617 5.38077 12.8799C5.2596 12.6981 5.21468 12.476 5.25568 12.2614C5.29669 12.0468 5.42033 11.8568 5.6 11.7325L9.16667 9.355V5.46333C9.16667 5.24232 9.25446 5.03036 9.41074 4.87408C9.56702 4.7178 9.77899 4.63 10 4.63C10.221 4.63 10.433 4.7178 10.5893 4.87408C10.7455 5.03036 10.8333 5.24232 10.8333 5.46333V9.80083ZM10 1.25C5.1675 1.25 1.25 5.1675 1.25 10C1.25 14.8325 5.1675 18.75 10 18.75C14.8325 18.75 18.75 14.8325 18.75 10C18.75 5.1675 14.8325 1.25 10 1.25Z" fill="#8B95A1"/>
</svg>