<svg xmlns="http://www.w3.org/2000/svg" width="20" height="20" viewBox="0 0 20 20" fill="none">
  <g clip-path="url(#clip0_4034_6214)">
    <path fill-rule="evenodd" clip-rule="evenodd" d="M18.6166 14.0941L15.3008 11.5274C15.1406 11.4039 14.9409 11.3429 14.7391 11.3559C14.5372 11.369 14.347 11.4551 14.2041 11.5983L12.4441 13.3591C12.313 13.4915 12.1411 13.5758 11.9561 13.5984C11.7712 13.6209 11.584 13.5804 11.425 13.4833C10.8583 13.1358 9.90995 12.4624 8.72329 11.2749C7.53662 10.0891 6.86329 9.13995 6.51579 8.57412C6.41859 8.41519 6.37804 8.22806 6.40074 8.04316C6.42343 7.85825 6.50804 7.68648 6.64079 7.55578L8.40079 5.79495C8.54414 5.65211 8.63037 5.46182 8.64327 5.25986C8.65616 5.0579 8.59482 4.85819 8.47079 4.69828L5.90495 1.38162C5.32162 0.629117 4.22162 0.50995 3.50495 1.13912C2.56079 1.96745 1.42662 3.20828 1.09662 4.60078C0.499119 7.10912 1.44329 10.2566 5.59329 14.4066C9.74329 18.5558 12.8908 19.5008 15.3983 18.9041C16.7908 18.5724 18.0325 17.4374 18.8608 16.4941C19.4891 15.7774 19.37 14.6774 18.6166 14.0941Z" fill="#8B95A1"/>
  </g>
  <defs>
    <clipPath id="clip0_4034_6214">
      <rect width="20" height="20" fill="white"/>
    </clipPath>
  </defs>
</svg>