<svg width="32" height="32" viewBox="0 0 32 32" fill="none" xmlns="http://www.w3.org/2000/svg">
<g id="ic_exclamation_circle">
<path id="Vector" fill-rule="evenodd" clip-rule="evenodd" d="M16.0002 1.3335C7.90016 1.3335 1.3335 7.90016 1.3335 16.0002C1.3335 24.1015 7.90016 30.6668 16.0002 30.6668C24.1002 30.6668 30.6668 24.1015 30.6668 16.0002C30.6668 7.90016 24.1002 1.3335 16.0002 1.3335Z" fill="white"/>
<path id="Vector_2" fill-rule="evenodd" clip-rule="evenodd" d="M16.0002 22.8242C15.5758 22.8242 15.1688 22.6556 14.8688 22.3555C14.5687 22.0555 14.4002 21.6485 14.4002 21.2242C14.4002 20.7998 14.5687 20.3928 14.8688 20.0928C15.1688 19.7927 15.5758 19.6242 16.0002 19.6242C16.4245 19.6242 16.8315 19.7927 17.1315 20.0928C17.4316 20.3928 17.6002 20.7998 17.6002 21.2242C17.6002 21.6485 17.4316 22.0555 17.1315 22.3555C16.8315 22.6556 16.4245 22.8242 16.0002 22.8242ZM14.6668 9.71083C14.6668 9.35721 14.8073 9.01807 15.0574 8.76802C15.3074 8.51797 15.6465 8.3775 16.0002 8.3775C16.3538 8.3775 16.6929 8.51797 16.943 8.76802C17.193 9.01807 17.3335 9.35721 17.3335 9.71083V16.3775C17.3335 16.7311 17.193 17.0703 16.943 17.3203C16.6929 17.5704 16.3538 17.7108 16.0002 17.7108C15.6465 17.7108 15.3074 17.5704 15.0574 17.3203C14.8073 17.0703 14.6668 16.7311 14.6668 16.3775V9.71083ZM16.0002 1.3335C7.90016 1.3335 1.3335 7.90016 1.3335 16.0002C1.3335 24.1015 7.90016 30.6668 16.0002 30.6668C24.1002 30.6668 30.6668 24.1015 30.6668 16.0002C30.6668 7.90016 24.1002 1.3335 16.0002 1.3335Z" fill="#EC3737"/>
</g>
</svg>
