<svg width="32" height="32" viewBox="0 0 32 32" fill="none" xmlns="http://www.w3.org/2000/svg">
<path fill-rule="evenodd" clip-rule="evenodd" d="M12.3813 10.1C12.9047 10.0996 13.4067 10.3072 13.7771 10.677C14.1474 11.0468 14.3556 11.5486 14.356 12.072C14.3563 12.5953 14.1488 13.0974 13.7789 13.4677C13.4091 13.838 12.9073 14.0463 12.384 14.0466C12.1248 14.0468 11.8682 13.9959 11.6287 13.8969C11.3892 13.7979 11.1716 13.6527 10.9882 13.4696C10.6179 13.0998 10.4097 12.598 10.4093 12.0746C10.409 11.5513 10.6165 11.0492 10.9863 10.6789C11.3562 10.3086 11.858 10.1003 12.3813 10.1ZM19.8946 10.1C20.1597 10.09 20.424 10.1337 20.6719 10.2282C20.9197 10.3227 21.1459 10.4663 21.337 10.6502C21.5281 10.8342 21.6802 11.0548 21.7841 11.2988C21.888 11.5429 21.9417 11.8053 21.9418 12.0706C21.942 12.3358 21.8887 12.5984 21.7851 12.8426C21.6815 13.0868 21.5298 13.3076 21.3389 13.4918C21.1481 13.676 20.9221 13.8198 20.6744 13.9147C20.4267 14.0096 20.1624 14.0535 19.8973 14.044C19.3868 14.0255 18.9034 13.8099 18.5487 13.4424C18.1939 13.0748 17.9955 12.5841 17.9952 12.0733C17.9948 11.5625 18.1926 11.0714 18.5468 10.7034C18.9011 10.3354 19.3842 10.1191 19.8946 10.1ZM16 1.30664C7.89998 1.30664 1.33331 7.87197 1.33331 15.9733C1.33331 24.0733 7.89998 30.64 16 30.64C24.1 30.64 30.6666 24.0733 30.6666 15.9733C30.6666 7.87197 24.1 1.30664 16 1.30664Z" fill="#FAD167"/>
<path fill-rule="evenodd" clip-rule="evenodd" d="M12.3813 10.1C12.9047 10.0996 13.4067 10.3072 13.7771 10.677C14.1474 11.0468 14.3556 11.5486 14.356 12.072C14.3563 12.5953 14.1488 13.0974 13.7789 13.4677C13.4091 13.838 12.9073 14.0463 12.384 14.0466C12.1248 14.0468 11.8682 13.9959 11.6287 13.8969C11.3892 13.7979 11.1716 13.6527 10.9882 13.4696C10.6179 13.0998 10.4097 12.598 10.4093 12.0746C10.4089 11.5513 10.6165 11.0492 10.9863 10.6789C11.3562 10.3086 11.8579 10.1003 12.3813 10.1ZM19.8946 10.1C20.1597 10.09 20.424 10.1337 20.6719 10.2282C20.9197 10.3227 21.1459 10.4663 21.337 10.6502C21.5281 10.8342 21.6802 11.0548 21.7841 11.2988C21.888 11.5429 21.9416 11.8053 21.9418 12.0706C21.942 12.3358 21.8887 12.5984 21.7851 12.8426C21.6815 13.0868 21.5298 13.3076 21.3389 13.4918C21.1481 13.676 20.9221 13.8198 20.6744 13.9147C20.4267 14.0096 20.1624 14.0535 19.8973 14.044C19.3868 14.0255 18.9034 13.8099 18.5486 13.4424C18.1939 13.0748 17.9955 12.5841 17.9952 12.0733C17.9948 11.5625 18.1925 11.0714 18.5468 10.7034C18.901 10.3354 19.3842 10.1191 19.8946 10.1Z" fill="#1B1F27"/>
<path d="M13 19.875V19.875C14.8843 18.529 17.4157 18.529 19.3 19.875V19.875" stroke="#FF601C" stroke-width="1.8" stroke-linecap="round"/>
<path d="M23.4425 22.0535C23.7231 21.1635 23.5626 20.3474 23.1952 19.6679L21.0535 15.8951C20.8112 15.4655 20.1943 15.4652 19.9447 15.8945L17.8346 19.6141C17.5771 20.0668 17.4174 20.5782 17.4177 21.1404C17.4188 23.0223 19.1023 24.5107 21.0504 24.18C22.1708 23.9893 23.1034 23.1426 23.4425 22.0535Z" fill="#4B93FF"/>
</svg>
