<svg width="20" height="20" viewBox="0 0 20 20" fill="none" xmlns="http://www.w3.org/2000/svg">
<g id="wrap">
<path id="Vector" fill-rule="evenodd" clip-rule="evenodd" d="M17.7634 2.23672C16.8107 1.28623 15.5199 0.752441 14.1742 0.752441C12.8285 0.752441 11.5377 1.28623 10.585 2.23672L8.87419 3.94672C8.71252 4.12071 8.62463 4.35061 8.62899 4.58808C8.63335 4.82554 8.72962 5.05207 8.89756 5.22001C9.0655 5.38795 9.29203 5.48422 9.52949 5.48858C9.76696 5.49294 9.99686 5.40505 10.1709 5.24338L11.8817 3.53338C12.4902 2.92629 13.3146 2.58535 14.1742 2.58535C15.0337 2.58535 15.8582 2.92629 16.4667 3.53338C16.7688 3.8337 17.0083 4.19096 17.1713 4.58447C17.3344 4.97798 17.4178 5.39993 17.4167 5.82588C17.4178 6.25185 17.3345 6.67381 17.1714 7.06733C17.0083 7.46084 16.7688 7.81809 16.4667 8.11838L13.4659 11.1192C12.2417 12.3442 10.1059 12.3442 8.88085 11.1192C8.67808 10.9171 8.50295 10.689 8.36002 10.4409C8.23891 10.23 8.03899 10.0759 7.80426 10.0125C7.56953 9.94904 7.3192 9.98144 7.10835 10.1026C6.89751 10.2237 6.74341 10.4236 6.67996 10.6583C6.61651 10.893 6.64891 11.1434 6.77002 11.3542C6.99252 11.7401 7.26585 12.0976 7.58419 12.4159C8.05451 12.8886 8.61387 13.2634 9.22993 13.5185C9.846 13.7737 10.5065 13.9042 11.1734 13.9026C11.8402 13.9043 12.5008 13.7739 13.1168 13.5187C13.7329 13.2635 14.2923 12.8887 14.7625 12.4159L17.7634 9.41588C18.2363 8.94537 18.6112 8.38573 18.8663 7.76937C19.1215 7.153 19.2519 6.49215 19.25 5.82505C19.2518 5.15822 19.1213 4.49765 18.8661 3.88158C18.611 3.2655 18.2361 2.70615 17.7634 2.23588" fill="#8B95A1"/>
<path id="Vector_2" fill-rule="evenodd" clip-rule="evenodd" d="M9.82918 14.7567L8.11835 16.4675C7.50964 17.0742 6.68527 17.4149 5.82585 17.4149C4.96643 17.4149 4.14206 17.0742 3.53335 16.4675C3.23146 16.1671 2.99208 15.8098 2.82902 15.4163C2.66597 15.0228 2.58247 14.6009 2.58335 14.175C2.58335 13.3092 2.92085 12.495 3.53335 11.8834L6.53418 8.88169C6.88665 8.52996 7.31532 8.26404 7.78701 8.10451C8.25871 7.94498 8.76078 7.89611 9.25438 7.96169C9.74799 8.02727 10.2199 8.20553 10.6336 8.48269C11.0472 8.75985 11.3916 9.12847 11.64 9.56002C11.7 9.66442 11.7799 9.75599 11.8753 9.82949C11.9706 9.903 12.0795 9.957 12.1958 9.98842C12.312 10.0198 12.4333 10.0281 12.5527 10.0126C12.6721 9.99714 12.7873 9.95833 12.8917 9.89835C12.9961 9.83838 13.0877 9.75844 13.1612 9.66308C13.2347 9.56772 13.2887 9.45882 13.3201 9.34259C13.3515 9.22636 13.3597 9.10509 13.3443 8.98568C13.3288 8.86628 13.29 8.75109 13.23 8.64669C12.8409 7.97141 12.3018 7.39465 11.6542 6.961C11.0066 6.52736 10.268 6.24844 9.49545 6.14582C8.72289 6.0432 7.93707 6.11962 7.19875 6.36917C6.46043 6.61873 5.78939 7.03473 5.23752 7.58502L2.23668 10.5859C1.76398 11.0562 1.3892 11.6155 1.13402 12.2316C0.878842 12.8477 0.748325 13.5082 0.750016 14.175C0.750016 15.5309 1.27835 16.8059 2.23668 17.7642C2.70754 18.236 3.26706 18.61 3.88304 18.8647C4.49901 19.1194 5.15929 19.2498 5.82585 19.2484C7.12585 19.2484 8.42502 18.7534 9.41502 17.765L11.1258 16.0542C11.2875 15.8802 11.3754 15.6503 11.371 15.4128C11.3667 15.1754 11.2704 14.9488 11.1025 14.7809C10.9345 14.613 10.708 14.5167 10.4705 14.5123C10.2331 14.508 10.0032 14.5959 9.82918 14.7575" fill="#8B95A1"/>
</g>
</svg>
