<svg xmlns="http://www.w3.org/2000/svg" width="16" height="18" viewBox="0 0 16 18" fill="none">
  <path fill-rule="evenodd" clip-rule="evenodd" d="M14.25 0.666748H1.74996C1.52895 0.666748 1.31698 0.754545 1.1607 0.910826C1.00442 1.06711 0.916626 1.27907 0.916626 1.50008V16.5001C0.916626 16.7211 1.00442 16.9331 1.1607 17.0893C1.31698 17.2456 1.52895 17.3334 1.74996 17.3334H8.83329V13.1667C8.83329 12.0184 9.76829 11.0834 10.9166 11.0834H15.0833V1.50008C15.0833 1.27907 14.9955 1.06711 14.8392 0.910826C14.6829 0.754545 14.471 0.666748 14.25 0.666748Z" fill="#8B95A1"/>
  <path fill-rule="evenodd" clip-rule="evenodd" d="M10.0833 13.1668V17.3335L15.0833 12.3335H10.9166C10.6956 12.3335 10.4836 12.4213 10.3273 12.5776C10.171 12.7339 10.0833 12.9458 10.0833 13.1668Z" fill="#8B95A1"/>
</svg>