<svg xmlns="http://www.w3.org/2000/svg" width="20" height="20" viewBox="0 0 20 20" fill="none">
  <path fill-rule="evenodd" clip-rule="evenodd" d="M9.99998 10.6182C9.69937 10.624 9.40064 10.5698 9.12123 10.4587C8.84183 10.3477 8.58738 10.182 8.37275 9.9715C8.15812 9.76095 7.98762 9.50972 7.87124 9.2325C7.75485 8.95528 7.6949 8.65764 7.6949 8.35698C7.6949 8.05632 7.75485 7.75868 7.87124 7.48146C7.98762 7.20424 8.15812 6.95301 8.37275 6.74247C8.58738 6.53192 8.84183 6.36628 9.12123 6.25523C9.40064 6.14418 9.69937 6.08996 9.99998 6.09573C10.5922 6.1071 11.1563 6.35033 11.5711 6.77316C11.9859 7.19599 12.2182 7.76467 12.2182 8.35698C12.2182 8.94929 11.9859 9.51797 11.5711 9.9408C11.1563 10.3636 10.5922 10.6069 9.99998 10.6182ZM8.22998 0.864064C4.67164 1.65823 2.17664 5.0074 2.31664 8.65073C2.42664 11.5124 4.18248 14.0724 9.40664 19.0949C9.73664 19.4116 10.265 19.4132 10.5958 19.0957C15.9991 13.9016 17.6925 11.3416 17.6925 8.35656C17.6925 3.53156 13.2483 -0.255936 8.22998 0.864897" fill="#8B95A1"/>
</svg>