<svg xmlns="http://www.w3.org/2000/svg" width="20" height="21" viewBox="0 0 20 21" fill="none">
  <path fill-rule="evenodd" clip-rule="evenodd" d="M13.743 11.3335H10.8263V14.2502C10.8263 14.4712 10.7385 14.6831 10.5823 14.8394C10.426 14.9957 10.214 15.0835 9.99301 15.0835C9.77199 15.0835 9.56003 14.9957 9.40375 14.8394C9.24747 14.6831 9.15967 14.4712 9.15967 14.2502V11.3335H6.24301C6.02199 11.3335 5.81003 11.2457 5.65375 11.0894C5.49747 10.9331 5.40967 10.7212 5.40967 10.5002C5.40967 10.2791 5.49747 10.0672 5.65375 9.91091C5.81003 9.75463 6.02199 9.66683 6.24301 9.66683H9.15967V6.75016C9.15967 6.52915 9.24747 6.31719 9.40375 6.16091C9.56003 6.00463 9.77199 5.91683 9.99301 5.91683C10.214 5.91683 10.426 6.00463 10.5823 6.16091C10.7385 6.31719 10.8263 6.52915 10.8263 6.75016V9.66683H13.743C13.964 9.66683 14.176 9.75463 14.3323 9.91091C14.4885 10.0672 14.5763 10.2791 14.5763 10.5002C14.5763 10.7212 14.4885 10.9331 14.3323 11.0894C14.176 11.2457 13.964 11.3335 13.743 11.3335ZM9.99967 1.3335C4.93717 1.3335 0.833008 5.43766 0.833008 10.5002C0.833008 15.5627 4.93717 19.6668 9.99967 19.6668C15.0622 19.6668 19.1663 15.5627 19.1663 10.5002C19.1663 5.43766 15.0622 1.3335 9.99967 1.3335Z" fill="#B5B9C6"/>
</svg>