<svg xmlns="http://www.w3.org/2000/svg" width="13" height="15" viewBox="0 0 13 15" fill="none">
  <path fill-rule="evenodd" clip-rule="evenodd" d="M3.52201 5.64076L5.75801 3.4041V9.52476C5.75801 9.71934 5.8353 9.90596 5.97289 10.0435C6.11048 10.1811 6.29709 10.2584 6.49168 10.2584C6.68626 10.2584 6.87287 10.1811 7.01046 10.0435C7.14804 9.90596 7.22534 9.71934 7.22534 9.52476V3.40476L9.46201 5.64076C9.52987 5.7092 9.61062 5.76351 9.69958 5.80058C9.78854 5.83765 9.88397 5.85673 9.98034 5.85673C10.0767 5.85673 10.1721 5.83765 10.2611 5.80058C10.3501 5.76351 10.4308 5.7092 10.4987 5.64076C10.5668 5.57266 10.6209 5.49181 10.6577 5.40281C10.6946 5.31382 10.7136 5.21843 10.7136 5.1221C10.7136 5.02576 10.6946 4.93038 10.6577 4.84138C10.6209 4.75239 10.5668 4.67153 10.4987 4.60343L7.01001 1.11476C6.87216 0.978015 6.68585 0.901283 6.49168 0.901283C6.2975 0.901283 6.11119 0.978015 5.97334 1.11476L2.48468 4.60343C2.35534 4.74262 2.28503 4.92655 2.28851 5.11652C2.292 5.30649 2.36902 5.48771 2.50337 5.62206C2.63773 5.75642 2.81895 5.83344 3.00892 5.83692C3.19889 5.84041 3.38281 5.7701 3.52201 5.64076Z" fill="#FF601C"/>
  <path fill-rule="evenodd" clip-rule="evenodd" d="M12.0874 8.22877C11.6827 8.22877 11.3534 8.55744 11.3534 8.96211V11.7668C11.3534 12.2448 10.9647 12.6334 10.4874 12.6334H2.4974C2.0194 12.6334 1.63073 12.2448 1.63073 11.7668V8.96144C1.63073 8.76695 1.55347 8.58042 1.41594 8.4429C1.27841 8.30537 1.09189 8.22811 0.897396 8.22811C0.702904 8.22811 0.516377 8.30537 0.378851 8.4429C0.241324 8.58042 0.164063 8.76695 0.164062 8.96144V11.7668C0.164062 13.0534 1.21073 14.1001 2.4974 14.1001H10.4874C11.7734 14.1001 12.8207 13.0534 12.8207 11.7668V8.96144C12.8207 8.76695 12.7435 8.58042 12.6059 8.4429C12.4684 8.30537 12.2819 8.22811 12.0874 8.22811" fill="#FF601C"/>
</svg>