<svg width="16" height="18" viewBox="0 0 16 18" fill="none" xmlns="http://www.w3.org/2000/svg">
<g id="wrap">
<path id="Vector" fill-rule="evenodd" clip-rule="evenodd" d="M4.2775 6.67582L7.0725 3.87998V11.5308C7.0725 11.774 7.16912 12.0073 7.3411 12.1793C7.51309 12.3513 7.74635 12.4479 7.98958 12.4479C8.2328 12.4479 8.46607 12.3513 8.63805 12.1793C8.81004 12.0073 8.90666 11.774 8.90666 11.5308V3.88082L11.7025 6.67582C11.7873 6.76136 11.8883 6.82925 11.9995 6.87559C12.1107 6.92192 12.2299 6.94577 12.3504 6.94577C12.4709 6.94577 12.5902 6.92192 12.7014 6.87559C12.8126 6.82925 12.9135 6.76136 12.9983 6.67582C13.0835 6.59069 13.1511 6.48962 13.1971 6.37838C13.2432 6.26713 13.267 6.1479 13.267 6.02748C13.267 5.90707 13.2432 5.78783 13.1971 5.67659C13.1511 5.56535 13.0835 5.46427 12.9983 5.37915L8.6375 1.01832C8.46518 0.84738 8.2323 0.751465 7.98958 0.751465C7.74686 0.751465 7.51398 0.84738 7.34166 1.01832L2.98083 5.37915C2.81916 5.55314 2.73127 5.78305 2.73563 6.02051C2.73999 6.25798 2.83626 6.4845 3.0042 6.65244C3.17215 6.82038 3.39867 6.91666 3.63613 6.92102C3.8736 6.92538 4.1035 6.83748 4.2775 6.67582Z" fill="#8B95A1"/>
<path id="Vector_2" fill-rule="evenodd" clip-rule="evenodd" d="M14.9842 9.91099C14.4783 9.91099 14.0667 10.3218 14.0667 10.8277V14.3335C14.0667 14.931 13.5808 15.4168 12.9842 15.4168H2.99665C2.39915 15.4168 1.91332 14.931 1.91332 14.3335V10.8268C1.91332 10.5837 1.81674 10.3506 1.64483 10.1786C1.47293 10.0067 1.23977 9.91016 0.996653 9.91016C0.753538 9.91016 0.52038 10.0067 0.348472 10.1786C0.176564 10.3506 0.0799866 10.5837 0.0799866 10.8268V14.3335C0.0799866 15.9418 1.38832 17.2502 2.99665 17.2502H12.9842C14.5917 17.2502 15.9008 15.9418 15.9008 14.3335V10.8268C15.9008 10.5837 15.8042 10.3506 15.6323 10.1786C15.4604 10.0067 15.2273 9.91016 14.9842 9.91016" fill="#8B95A1"/>
</g>
</svg>
