<svg width="32" height="32" viewBox="0 0 32 32" fill="none" xmlns="http://www.w3.org/2000/svg">
<g id="ic_walk">
<path id="Vector" d="M16 6.0002C16.7202 5.99963 17.4166 6.25819 17.9619 6.72864C18.5073 7.19909 18.8652 7.85004 18.9702 8.56256C19.0753 9.27509 18.9205 10.0016 18.5342 10.6095C18.1478 11.2173 17.5557 11.6659 16.866 11.8732L16.696 11.9192L19.123 14.6942L20.947 15.6052C21.1776 15.7178 21.3561 15.9148 21.4455 16.1555C21.5349 16.3961 21.5284 16.6618 21.4272 16.8977C21.3261 17.1337 21.1381 17.3217 20.9022 17.4228C20.6663 17.524 20.4006 17.5306 20.16 17.4412L20.0529 17.3942L18.229 16.4822C18.055 16.3953 17.8946 16.2834 17.753 16.1502L17.618 16.0102L16.6 14.8472L15.9399 17.4852C15.8803 17.7252 15.7765 17.9521 15.634 18.1542L15.524 18.2962L17.452 20.0592C17.7001 20.2858 17.8872 20.5712 17.996 20.8892L18.043 21.0492L18.781 24.0002H19C19.2548 24.0005 19.5 24.0981 19.6853 24.273C19.8707 24.448 19.9822 24.6871 19.9971 24.9416C20.0121 25.196 19.9293 25.4466 19.7657 25.642C19.6021 25.8375 19.37 25.9631 19.117 25.9932L19 26.0002H18.078C17.854 26.0002 17.6354 25.9318 17.4513 25.8042C17.2673 25.6766 17.1265 25.4959 17.048 25.2862L17.011 25.1662L16.103 21.5352L13.093 18.7832C12.7149 18.5907 12.4079 18.2831 12.2161 17.9047C12.0243 17.5264 11.9577 17.0969 12.026 16.6782L12.06 16.5152L12.573 14.4632L12.25 14.6932L10.857 17.0152C10.7258 17.2342 10.5158 17.3948 10.2701 17.4639C10.0244 17.5331 9.76146 17.5057 9.53529 17.3873C9.30912 17.2689 9.13679 17.0685 9.05362 16.8272C8.97044 16.5858 8.98273 16.3218 9.08795 16.0892L9.14195 15.9852L10.535 13.6642C10.6477 13.4761 10.7906 13.3079 10.958 13.1662L11.088 13.0662L13.85 11.0912C13.439 10.6684 13.1617 10.1339 13.0528 9.55441C12.9439 8.97495 13.0081 8.37623 13.2375 7.83306C13.4669 7.2899 13.8512 6.82637 14.3426 6.50039C14.8339 6.17441 15.4103 6.00043 16 6.0002ZM13.316 19.5512C13.4406 19.5927 13.5558 19.6583 13.6551 19.7443C13.7544 19.8303 13.8357 19.9351 13.8945 20.0526C13.9533 20.17 13.9884 20.2979 13.9977 20.429C14.007 20.56 13.9905 20.6916 13.949 20.8162L13.523 22.0922C13.4248 22.3868 13.2595 22.6546 13.04 22.8742L11.383 24.5312C11.495 24.7427 11.5275 24.9874 11.4744 25.2209C11.4214 25.4543 11.2864 25.661 11.0939 25.8033C10.9015 25.9457 10.6643 26.0142 10.4256 25.9966C10.1869 25.979 9.9624 25.8763 9.79295 25.7072L9.29995 25.2142C9.11065 25.0248 9.00431 24.768 9.00431 24.5002C9.00431 24.2324 9.11065 23.9756 9.29995 23.7862L11.626 21.4602L12.051 20.1842C12.0924 20.0596 12.158 19.9443 12.2441 19.845C12.3301 19.7458 12.4348 19.6644 12.5523 19.6056C12.6698 19.5468 12.7977 19.5118 12.9287 19.5024C13.0597 19.4931 13.1913 19.5097 13.316 19.5512Z" fill="#8B95A1"/>
</g>
</svg>
