<svg xmlns="http://www.w3.org/2000/svg" width="16" height="16" viewBox="0 0 16 16" fill="none">
  <path fill-rule="evenodd" clip-rule="evenodd" d="M9.21003 8.00008L12.9774 4.23274C13.0517 4.15846 13.1107 4.07026 13.1509 3.97319C13.1911 3.87611 13.2119 3.77206 13.2119 3.66698C13.2119 3.56189 13.1913 3.45783 13.1511 3.36074C13.1109 3.26364 13.052 3.17541 12.9777 3.10108C12.9034 3.02675 12.8152 2.96778 12.7181 2.92754C12.6211 2.88729 12.517 2.86657 12.4119 2.86654C12.3068 2.8665 12.2028 2.88717 12.1057 2.92736C12.0086 2.96754 11.9204 3.02646 11.846 3.10074L8.0787 6.86874L4.3107 3.10074C4.15894 2.959 3.95804 2.88175 3.7504 2.88533C3.54277 2.8889 3.34465 2.973 3.19785 3.11988C3.05105 3.26677 2.96706 3.46494 2.96362 3.67258C2.96017 3.88021 3.03753 4.08107 3.17936 4.23274L6.94736 8.00008L3.17936 11.7674C3.068 11.8795 2.99228 12.0221 2.96173 12.1771C2.93118 12.3322 2.94715 12.4928 3.00764 12.6388C3.06814 12.7848 3.17045 12.9097 3.30171 12.9977C3.43298 13.0857 3.58733 13.1329 3.74536 13.1334C3.95003 13.1334 4.1547 13.0554 4.3107 12.8994L8.0787 9.13141L11.846 12.8994C11.9202 12.9739 12.0084 13.0329 12.1055 13.0732C12.2025 13.1135 12.3066 13.1343 12.4117 13.1343C12.5168 13.1343 12.6209 13.1135 12.7179 13.0732C12.815 13.0329 12.9032 12.9739 12.9774 12.8994C13.0517 12.8251 13.1108 12.7369 13.151 12.6398C13.1913 12.5426 13.212 12.4385 13.212 12.3334C13.212 12.2283 13.1913 12.1242 13.151 12.0271C13.1108 11.9299 13.0517 11.8417 12.9774 11.7674L9.21003 8.00008Z" fill="#8B95A1"/>
</svg>