<svg width="14" height="14" viewBox="0 0 14 14" fill="none" xmlns="http://www.w3.org/2000/svg">
<g id="icon-pin-location-mono">
<path id="Vector" fill-rule="evenodd" clip-rule="evenodd" d="M6.99981 7.43283C6.78939 7.43687 6.58027 7.39892 6.38469 7.32118C6.18911 7.24345 6.01099 7.1275 5.86075 6.98012C5.71051 6.83274 5.59117 6.65688 5.50969 6.46282C5.42822 6.26877 5.38626 6.06042 5.38626 5.84996C5.38626 5.6395 5.42822 5.43115 5.50969 5.2371C5.59117 5.04304 5.71051 4.86718 5.86075 4.7198C6.01099 4.57241 6.18911 4.45647 6.38469 4.37873C6.58027 4.301 6.78939 4.26304 6.99981 4.26708C7.41436 4.27504 7.80923 4.44531 8.09959 4.74129C8.38994 5.03727 8.55259 5.43534 8.55259 5.84996C8.55259 6.26458 8.38994 6.66265 8.09959 6.95863C7.80923 7.25461 7.41436 7.42488 6.99981 7.43283ZM5.76081 0.604918C3.26998 1.16083 1.52348 3.50525 1.62148 6.05558C1.69848 8.05875 2.92756 9.85075 6.58448 13.3665C6.81548 13.5882 7.18531 13.5893 7.4169 13.3671C11.1992 9.73117 12.3846 7.93917 12.3846 5.84967C12.3846 2.47217 9.27365 -0.179082 5.76081 0.605501" fill="#B5B9C6"/>
</g>
</svg>
