<svg width="16" height="16" viewBox="0 0 16 16" fill="none" xmlns="http://www.w3.org/2000/svg">
<g id="icon-arrow-left-right-mono">
<path id="Vector" fill-rule="evenodd" clip-rule="evenodd" d="M2.63379 5.17201H11.5951L9.93246 6.83468C9.80495 6.97419 9.73618 7.15751 9.74045 7.34646C9.74473 7.53542 9.82173 7.71544 9.95542 7.84904C10.0891 7.98264 10.2692 8.05952 10.4581 8.06368C10.6471 8.06783 10.8304 7.99894 10.9698 7.87134L13.8838 4.95668C13.9525 4.88889 14.007 4.80814 14.0443 4.7191C14.0815 4.63006 14.1007 4.53452 14.1007 4.43801C14.1007 4.3415 14.0815 4.24596 14.0443 4.15692C14.007 4.06788 13.9525 3.98713 13.8838 3.91934L10.9698 1.00601C10.9021 0.936418 10.8212 0.880975 10.7318 0.842898C10.6425 0.804821 10.5465 0.784868 10.4494 0.784197C10.3523 0.783527 10.256 0.802152 10.1661 0.838992C10.0763 0.875832 9.99462 0.930153 9.92592 0.998801C9.85723 1.06745 9.80286 1.14906 9.76596 1.23889C9.72906 1.32872 9.71037 1.42499 9.71098 1.5221C9.71159 1.61922 9.73148 1.71524 9.7695 1.80461C9.80752 1.89397 9.86291 1.97489 9.93246 2.04268L11.5951 3.70534H2.63379C2.4393 3.70534 2.25277 3.7826 2.11525 3.92013C1.97772 4.05766 1.90046 4.24418 1.90046 4.43868C1.90046 4.63317 1.97772 4.81969 2.11525 4.95722C2.25277 5.09475 2.4393 5.17201 2.63379 5.17201ZM13.3658 10.8273H4.40446L6.06646 9.16468C6.20095 9.0265 6.27562 8.84092 6.27428 8.64811C6.27295 8.45529 6.19573 8.27076 6.05935 8.13446C5.92296 7.99816 5.73838 7.92106 5.54556 7.91985C5.35274 7.91865 5.16721 7.99343 5.02913 8.12801L2.11446 11.042C2.04601 11.1099 1.99168 11.1907 1.9546 11.2797C1.91753 11.3688 1.89844 11.4642 1.89844 11.5607C1.89844 11.6571 1.91753 11.7526 1.9546 11.8416C1.99168 11.9306 2.04601 12.0114 2.11446 12.0793L5.02913 14.994C5.09724 15.0621 5.1781 15.1162 5.26709 15.153C5.35609 15.1899 5.45147 15.2088 5.54779 15.2088C5.64412 15.2088 5.7395 15.1899 5.82849 15.153C5.91749 15.1162 5.99835 15.0621 6.06646 14.994C6.13457 14.9259 6.1886 14.845 6.22546 14.756C6.26233 14.6671 6.2813 14.5717 6.2813 14.4753C6.2813 14.379 6.26233 14.2836 6.22546 14.1946C6.1886 14.1056 6.13457 14.0248 6.06646 13.9567L4.40379 12.294H13.3651C13.5596 12.294 13.7461 12.2167 13.8837 12.0792C14.0212 11.9417 14.0985 11.7552 14.0985 11.5607C14.0985 11.3662 14.0212 11.1797 13.8837 11.0421C13.7461 10.9046 13.5596 10.8273 13.3651 10.8273" fill="#8B95A1"/>
</g>
</svg>
