<svg width="28" height="28" viewBox="0 0 28 28" fill="none" xmlns="http://www.w3.org/2000/svg">
<g id="icon-x-mono">
<path id="Vector" d="M22.9306 5.20253L22.9306 5.20253C22.7356 5.00744 22.5041 4.85266 22.2493 4.74703C21.9945 4.6414 21.7214 4.587 21.4456 4.58691C21.1698 4.58683 20.8967 4.64108 20.6418 4.74656C20.3869 4.85203 20.1554 5.00668 19.9603 5.20165L19.9601 5.20186L14.133 11.0299L8.30489 5.20181L8.29584 5.19277L8.2865 5.18404C7.88824 4.81206 7.36104 4.60936 6.81616 4.61873C6.27128 4.62811 5.75136 4.84881 5.36614 5.23427C4.98091 5.61972 4.76051 6.13977 4.75146 6.68465C4.74241 7.22954 4.94541 7.75662 5.31763 8.15466L5.32624 8.16386L5.33515 8.17277L11.1632 13.9998L5.33514 19.8268L5.33327 19.8286C5.04113 20.1228 4.84248 20.4968 4.76232 20.9036C4.68216 21.3103 4.72407 21.7317 4.88277 22.1147C5.04148 22.4978 5.30989 22.8253 5.65425 23.0562C5.99861 23.287 6.40355 23.4109 6.81814 23.4123H6.82056C7.3564 23.4123 7.89513 23.2075 8.30489 22.7977L14.133 16.9696L19.9592 22.7969C19.9593 22.7969 19.9594 22.797 19.9595 22.7971C20.1543 22.9925 20.3858 23.1476 20.6406 23.2534C20.8956 23.3592 21.1689 23.4137 21.445 23.4137C21.7211 23.4137 21.9944 23.3592 22.2494 23.2534C22.5038 23.1477 22.7349 22.993 22.9296 22.798C23.1248 22.603 23.2797 22.3714 23.3854 22.1164C23.4911 21.8615 23.5455 21.5882 23.5455 21.3123C23.5455 21.0363 23.4911 20.763 23.3854 20.5081C23.2798 20.2533 23.125 20.0218 22.9299 19.8268C22.9298 19.8267 22.9297 19.8266 22.9296 19.8265L17.1028 13.9998L22.9297 8.17288C22.9298 8.17283 22.9298 8.17277 22.9299 8.17272C23.1249 7.97778 23.2796 7.74634 23.3852 7.49161C23.4909 7.23681 23.5453 6.9637 23.5453 6.68788C23.5454 6.41206 23.4912 6.13892 23.3857 5.88407C23.2802 5.62921 23.1256 5.39763 22.9306 5.20253Z" fill="#FF5B5B" stroke="#FF5B5B" stroke-width="1.5"/>
</g>
</svg>
