<svg xmlns="http://www.w3.org/2000/svg" width="27" height="26" viewBox="0 0 27 26" fill="none">
  <path d="M20.3318 11.7648L14.7125 11.7653L14.7125 6.14546L14.7128 6.14546L14.7123 6.13268C14.701 5.80198 14.5617 5.48861 14.3238 5.2587C14.0858 5.02879 13.7678 4.90032 13.4369 4.90042C13.106 4.90052 12.7881 5.02917 12.5503 5.25922C12.3125 5.48927 12.1734 5.80273 12.1623 6.13343L12.1621 6.13342L12.1621 6.14602L12.1626 11.7653L6.54331 11.7648L6.54331 11.7648L6.54198 11.7648C6.29024 11.7657 6.04437 11.8409 5.83531 11.9812C5.62624 12.1214 5.46331 12.3203 5.36699 12.5529C5.27068 12.7855 5.2453 13.0414 5.29403 13.2884C5.34275 13.5353 5.46342 13.7624 5.64086 13.941L5.64171 13.9418C5.87187 14.172 6.19095 14.3153 6.54274 14.3153L12.1626 14.3153L12.1621 19.934C12.1621 19.9341 12.1621 19.9343 12.1621 19.9344C12.1618 20.1018 12.1947 20.2677 12.2586 20.4224C12.3226 20.5773 12.4166 20.718 12.5351 20.8365C12.6536 20.955 12.7943 21.049 12.9492 21.113C13.1039 21.1769 13.2697 21.2097 13.4371 21.2095C13.6046 21.2096 13.7704 21.1767 13.9251 21.1126C14.0799 21.0485 14.2206 20.9546 14.3391 20.8361C14.4576 20.7176 14.5515 20.577 14.6156 20.4221C14.6797 20.2674 14.7126 20.1015 14.7125 19.934C14.7125 19.934 14.7125 19.9339 14.7125 19.9338L14.7125 14.3153L20.3312 14.3153C20.3313 14.3153 20.3313 14.3153 20.3313 14.3153C20.4988 14.3153 20.6645 14.2824 20.8193 14.2183C20.974 14.1543 21.1146 14.0604 21.2331 13.942C21.3515 13.8236 21.4455 13.6831 21.5096 13.5284C21.5737 13.3737 21.6068 13.2079 21.6068 13.0404C21.6069 12.8729 21.5739 12.7071 21.5099 12.5524C21.4459 12.3976 21.352 12.257 21.2336 12.1386C21.1152 12.0201 20.9746 11.9261 20.8199 11.862C20.6653 11.7979 20.4994 11.7648 20.332 11.7648L20.3318 11.7648Z" fill="#FFF7F2" stroke="#FFF7F2" stroke-width="0.75"/>
</svg>