<svg width="28" height="28" viewBox="0 0 28 28" fill="none" xmlns="http://www.w3.org/2000/svg">
<path d="M22.9304 5.20253L22.9304 5.20253C22.7354 5.00744 22.5039 4.85266 22.2491 4.74703C21.9943 4.6414 21.7212 4.587 21.4454 4.58691C21.1695 4.58683 20.8964 4.64108 20.6416 4.74656C20.3867 4.85203 20.1551 5.00668 19.96 5.20165L19.9598 5.20186L14.1328 11.0299L8.30464 5.20181L8.2956 5.19277L8.28625 5.18404C7.888 4.81206 7.36079 4.60936 6.81592 4.61873C6.27104 4.62811 5.75112 4.84881 5.36589 5.23427C4.98066 5.61972 4.76026 6.13977 4.75121 6.68465C4.74216 7.22954 4.94517 7.75662 5.31739 8.15466L5.32599 8.16386L5.3349 8.17277L11.1629 13.9998L5.3349 19.8268L5.33303 19.8286C5.04088 20.1228 4.84224 20.4968 4.76208 20.9036C4.68192 21.3103 4.72383 21.7317 4.88253 22.1147C5.04123 22.4978 5.30964 22.8253 5.654 23.0562C5.99837 23.287 6.40331 23.4109 6.8179 23.4123H6.82031C7.35616 23.4123 7.89488 23.2075 8.30464 22.7977L14.1328 16.9696L19.959 22.7969C19.9591 22.7969 19.9592 22.797 19.9593 22.7971C20.1541 22.9925 20.3856 23.1476 20.6404 23.2534C20.8953 23.3592 21.1687 23.4137 21.4447 23.4137C21.7208 23.4137 21.9942 23.3592 22.2491 23.2534C22.5036 23.1477 22.7347 22.993 22.9293 22.798C23.1246 22.603 23.2795 22.3714 23.3852 22.1164C23.4909 21.8615 23.5452 21.5882 23.5452 21.3123C23.5452 21.0363 23.4909 20.763 23.3852 20.5081C23.2795 20.2533 23.1248 20.0218 22.9296 19.8268C22.9295 19.8267 22.9294 19.8266 22.9293 19.8265L17.1026 13.9998L22.9295 8.17288C22.9295 8.17283 22.9296 8.17277 22.9296 8.17272C23.1247 7.97778 23.2794 7.74634 23.385 7.49161C23.4906 7.23681 23.545 6.9637 23.5451 6.68788C23.5452 6.41206 23.4909 6.13892 23.3855 5.88407C23.28 5.62921 23.1253 5.39763 22.9304 5.20253Z" fill="#FF5B5B" stroke="#FF5B5B" stroke-width="1.5"/>
</svg>
