<svg width="14" height="14" viewBox="0 0 14 14" fill="none" xmlns="http://www.w3.org/2000/svg">
<g id="icon-call-mono" clip-path="url(#clip0_4691_222)">
<path id="Vector" fill-rule="evenodd" clip-rule="evenodd" d="M13.0319 9.86617L10.7108 8.06951C10.5987 7.983 10.4589 7.94031 10.3176 7.94944C10.1763 7.95857 10.0432 8.01888 9.94314 8.11909L8.71114 9.35167C8.61938 9.44437 8.49901 9.50338 8.36954 9.51915C8.24007 9.53493 8.10906 9.50654 7.99772 9.43859C7.60106 9.19534 6.93722 8.72401 6.10656 7.89276C5.27589 7.06267 4.80456 6.39826 4.56131 6.00217C4.49327 5.89093 4.46488 5.75993 4.48077 5.6305C4.49666 5.50107 4.55588 5.38083 4.64881 5.28934L5.88081 4.05676C5.98116 3.95677 6.04152 3.82357 6.05054 3.68219C6.05957 3.54082 6.01663 3.40103 5.92981 3.28909L4.13372 0.967425C3.72539 0.440675 2.95539 0.357258 2.45372 0.797675C1.79281 1.37751 0.99889 2.24609 0.76789 3.22084C0.34964 4.97667 1.01056 7.17992 3.91556 10.0849C6.82056 12.9893 9.02381 13.6508 10.7791 13.2332C11.7538 13.001 12.623 12.2065 13.2028 11.5462C13.6426 11.0445 13.5592 10.2745 13.0319 9.86617Z" fill="#B5B9C6"/>
</g>
<defs>
<clipPath id="clip0_4691_222">
<rect width="14" height="14" fill="white"/>
</clipPath>
</defs>
</svg>
