<svg width="120" height="120" viewBox="0 0 121 120" fill="none" xmlns="http://www.w3.org/2000/svg">
<g id="img_dislike">
<path id="Vector" fill-rule="evenodd" clip-rule="evenodd" d="M71.515 59.9969L108.214 23.3059C108.938 22.5824 109.513 21.7234 109.905 20.778C110.297 19.8326 110.499 18.8192 110.499 17.7957C110.499 16.7723 110.298 15.7588 109.907 14.8131C109.515 13.8675 108.941 13.0082 108.218 12.2843C107.494 11.5604 106.635 10.9861 105.689 10.5941C104.744 10.2022 103.73 10.0003 102.706 10C101.683 9.9997 100.669 10.201 99.723 10.5924C98.7771 10.9837 97.9176 11.5575 97.1935 12.281L60.4941 48.9785L23.7882 12.281C22.3099 10.9005 20.3528 10.1482 18.3301 10.183C16.3075 10.2178 14.3775 11.0369 12.9474 12.4674C11.5174 13.898 10.6993 15.828 10.6657 17.8502C10.6321 19.8725 11.3857 21.8286 12.7674 23.3059L49.4733 59.9969L12.7674 96.6879C11.6826 97.78 10.9449 99.1684 10.6473 100.678C10.3496 102.189 10.5053 103.753 11.0946 105.175C11.6839 106.597 12.6805 107.813 13.9592 108.67C15.2379 109.527 16.7416 109.987 18.2811 109.992C20.2748 109.992 22.2686 109.232 23.7882 107.713L60.4941 71.0152L97.1935 107.713C97.9163 108.438 98.7751 109.013 99.7207 109.405C100.666 109.798 101.68 110 102.704 110C103.728 110 104.742 109.798 105.687 109.405C106.633 109.013 107.492 108.438 108.214 107.713C108.939 106.989 109.514 106.13 109.906 105.184C110.298 104.238 110.5 103.224 110.5 102.2C110.5 101.176 110.298 100.163 109.906 99.2167C109.514 98.2708 108.939 97.4115 108.214 96.6879L71.515 59.9969Z" fill="#FF5B5B"/>
</g>
</svg>
