<svg width="96" height="96" viewBox="0 0 96 96" fill="none" xmlns="http://www.w3.org/2000/svg">
<g id="img_dislike">
<path id="Vector" fill-rule="evenodd" clip-rule="evenodd" d="M56.812 47.9975L86.1715 18.6447C86.7507 18.0659 87.2103 17.3787 87.5239 16.6224C87.8375 15.866 87.9991 15.0553 87.9993 14.2366C87.9996 13.4178 87.8385 12.607 87.5253 11.8505C87.2121 11.094 86.753 10.4065 86.1741 9.82742C85.5952 9.2483 84.9078 8.78884 84.1513 8.47529C83.3948 8.16175 82.5839 8.00024 81.765 8C80.946 7.99976 80.1351 8.16079 79.3784 8.47389C78.6217 8.78699 77.9341 9.24604 77.3548 9.82482L47.9953 39.1828L18.6306 9.82482C17.4479 8.72039 15.8822 8.11858 14.2641 8.14641C12.646 8.17423 11.102 8.82951 9.95795 9.97394C8.81393 11.1184 8.15941 12.6624 8.13253 14.2802C8.10566 15.898 8.70853 17.4629 9.8139 18.6447L39.1786 47.9975L9.8139 77.3503C8.94605 78.224 8.35595 79.3347 8.11784 80.5428C7.87972 81.7508 8.00421 83.0023 8.47565 84.1399C8.94709 85.2774 9.74442 86.2501 10.7674 86.9358C11.7904 87.6215 12.9933 87.9894 14.2248 87.9934C15.8198 87.9934 17.4149 87.3857 18.6306 86.1702L47.9953 56.8122L77.3548 86.1702C77.933 86.7502 78.6201 87.2104 79.3766 87.5244C80.133 87.8384 80.9441 88 81.7632 88C82.5822 88 83.3933 87.8384 84.1497 87.5244C84.9062 87.2104 85.5933 86.7502 86.1715 86.1702C86.7512 85.5913 87.211 84.9039 87.5248 84.1472C87.8385 83.3905 88 82.5794 88 81.7603C88 80.9411 87.8385 80.13 87.5248 79.3733C87.211 78.6167 86.7512 77.9292 86.1715 77.3503L56.812 47.9975Z" fill="#FF5B5B"/>
</g>
</svg>
