<svg width="16" height="16" viewBox="0 0 16 16" fill="none" xmlns="http://www.w3.org/2000/svg">
<g id="surface1">
<path id="Vector" d="M8 0.365723C3.58173 0.365723 0 3.18994 0 6.67342C0 8.92552 1.4973 10.9018 3.7497 12.0178C3.6274 12.4402 2.96244 14.7365 2.936 14.9168C2.936 14.9168 2.92007 15.0523 3.00781 15.104C3.09555 15.1557 3.19862 15.1157 3.19862 15.1157C3.45042 15.0806 6.11749 13.2071 6.57903 12.8819C7.04026 12.9472 7.51502 12.9811 8 12.9811C12.4183 12.9811 16 10.1572 16 6.67342C16 3.18994 12.4183 0.365723 8 0.365723Z" fill="#363A3C"/>
<path id="Vector_2" d="M3.577 8.87511C3.32249 8.87511 3.11546 8.6774 3.11546 8.43431V5.69242H2.39521C2.14551 5.69242 1.94238 5.4896 1.94238 5.2405C1.94238 4.9914 2.14551 4.78857 2.39521 4.78857H4.75879C5.00849 4.78857 5.21161 4.9914 5.21161 5.2405C5.21161 5.4896 5.00849 5.69242 4.75879 5.69242H4.03854V8.43431C4.03854 8.6774 3.83151 8.87511 3.577 8.87511Z" fill="#FFE812"/>
<path id="Vector_3" d="M6.76864 7.24951L6.3077 5.93972L5.84677 7.24951H6.76864ZM7.62411 8.8691C7.4315 8.8691 7.28427 8.79098 7.23979 8.66508L7.01143 8.06682H5.60398L5.37531 8.66538C5.33114 8.79098 5.18391 8.8691 4.9916 8.8691C4.88973 8.8691 4.78817 8.84717 4.69803 8.8054C4.57092 8.74681 4.44863 8.58515 4.58865 8.15005L5.69262 5.2441C5.77044 5.02325 6.00662 4.79549 6.3074 4.78857C6.60879 4.79549 6.84496 5.02325 6.92279 5.2447L8.02645 8.14915C8.16708 8.58545 8.04448 8.74711 7.91738 8.8054C7.82693 8.84717 7.72567 8.8691 7.62411 8.8691Z" fill="#FFE812"/>
<path id="Vector_4" d="M8.76946 8.80781C8.52547 8.80781 8.32715 8.6179 8.32715 8.38473V5.25011C8.32715 4.99561 8.53839 4.78857 8.7983 4.78857C9.05822 4.78857 9.26946 4.99561 9.26946 5.25011V7.96165H10.2502C10.4942 7.96165 10.6925 8.15156 10.6925 8.38473C10.6925 8.6179 10.4942 8.80781 10.2502 8.80781" fill="#FFE812"/>
<path id="Vector_5" d="M11.3336 8.8691C11.0788 8.8691 10.8721 8.66207 10.8721 8.40757V5.25011C10.8721 4.99561 11.0788 4.78857 11.3336 4.78857C11.5881 4.78857 11.7951 4.99561 11.7951 5.25011V6.242L13.0827 4.95444C13.1491 4.88833 13.2399 4.85168 13.3387 4.85168C13.4538 4.85168 13.5695 4.90125 13.6563 4.98809C13.7372 5.06892 13.7855 5.17259 13.7921 5.28046C13.7988 5.38954 13.7624 5.4893 13.6903 5.56171L12.6383 6.61339L13.7744 8.1182C13.8486 8.21676 13.8802 8.33815 13.8631 8.46015C13.8459 8.58244 13.7825 8.69062 13.684 8.76454C13.6031 8.82553 13.5073 8.85799 13.4063 8.85799C13.26 8.85799 13.1257 8.79098 13.0376 8.67439L11.9553 7.2402L11.7951 7.40035V8.40726C11.7951 8.66207 11.5881 8.8691 11.3336 8.8691Z" fill="#FFE812"/>
</g>
</svg>
