<svg width="24" height="24" viewBox="0 0 24 24" fill="none" xmlns="http://www.w3.org/2000/svg">
<g clip-path="url(#clip0_429_10896)">
<path d="M11.9999 1.29865C5.3725 1.29865 -9.15527e-05 5.53497 -9.15527e-05 10.7602C-9.15527e-05 14.1383 2.24585 17.1027 5.62446 18.7767C5.44101 19.4104 4.44357 22.8548 4.4039 23.1253C4.4039 23.1253 4.38002 23.3285 4.51163 23.4061C4.64324 23.4836 4.79784 23.4236 4.79784 23.4236C5.17554 23.3709 9.17614 20.5607 9.86845 20.073C10.5603 20.1708 11.2724 20.2217 11.9999 20.2217C18.6273 20.2217 23.9999 15.9858 23.9999 10.7602C23.9999 5.53497 18.6273 1.29865 11.9999 1.29865Z" fill="#363A3C"/>
<path d="M5.36531 14.0628C4.98355 14.0628 4.67301 13.7662 4.67301 13.4016V9.28878H3.59263C3.21808 9.28878 2.91339 8.98455 2.91339 8.6109C2.91339 8.23725 3.21808 7.93301 3.59263 7.93301H7.138C7.51255 7.93301 7.81724 8.23725 7.81724 8.6109C7.81724 8.98455 7.51255 9.28878 7.138 9.28878H6.05762V13.4016C6.05762 13.7662 5.74707 14.0628 5.36531 14.0628Z" fill="#FFE812"/>
<path d="M10.1528 11.6244L9.46137 9.65973L8.76997 11.6244H10.1528ZM11.436 14.0538C11.1471 14.0538 10.9262 13.9366 10.8595 13.7478L10.517 12.8504H8.40578L8.06278 13.7482C7.99653 13.9366 7.77568 14.0538 7.48721 14.0538C7.33442 14.0538 7.18208 14.0209 7.04686 13.9583C6.8562 13.8704 6.67276 13.6279 6.8828 12.9752L8.53875 8.61631C8.65548 8.28503 9.00975 7.94338 9.46092 7.93301C9.91299 7.94338 10.2673 8.28503 10.384 8.61721L12.0395 12.9739C12.2504 13.6283 12.0665 13.8708 11.8759 13.9583C11.7402 14.0209 11.5883 14.0538 11.436 14.0538Z" fill="#FFE812"/>
<path d="M13.1537 13.9619C12.7877 13.9619 12.4902 13.677 12.4902 13.3272V8.62532C12.4902 8.24356 12.8071 7.93301 13.197 7.93301C13.5868 7.93301 13.9037 8.24356 13.9037 8.62532V12.6926H15.3749C15.7408 12.6926 16.0383 12.9775 16.0383 13.3272C16.0383 13.677 15.7408 13.9619 15.3749 13.9619" fill="#FFE812"/>
<path d="M17.0002 14.0538C16.618 14.0538 16.3079 13.7433 16.3079 13.3615V8.62532C16.3079 8.24356 16.618 7.93301 17.0002 7.93301C17.382 7.93301 17.6925 8.24356 17.6925 8.62532V10.1132L19.6239 8.18181C19.7235 8.08265 19.8596 8.02767 20.0079 8.02767C20.1805 8.02767 20.354 8.10203 20.4843 8.23229C20.6055 8.35354 20.6781 8.50904 20.688 8.67084C20.6979 8.83446 20.6434 8.9841 20.5352 9.09272L18.9573 10.6702L20.6614 12.9275C20.7728 13.0753 20.8201 13.2574 20.7944 13.4404C20.7687 13.6238 20.6736 13.7861 20.5258 13.897C20.4045 13.9885 20.2607 14.0371 20.1093 14.0371C19.8898 14.0371 19.6883 13.9366 19.5563 13.7617L17.9328 11.6104L17.6925 11.8507V13.361C17.6925 13.7433 17.382 14.0538 17.0002 14.0538Z" fill="#FFE812"/>
</g>
<defs>
<clipPath id="clip0_429_10896">
<rect width="24" height="24" fill="white"/>
</clipPath>
</defs>
</svg>
