<svg width="212" height="95" viewBox="0 0 212 95" fill="none" xmlns="http://www.w3.org/2000/svg">
<g id="Piki">
<path id="Vector" d="M115.237 11.2C115.237 9.33333 115.536 7.728 116.133 6.384C116.805 4.96533 117.664 3.808 118.709 2.912C119.755 1.94133 120.949 1.232 122.293 0.784004C123.637 0.261335 125.056 0 126.549 0C129.461 0 132.037 0.933336 134.277 2.8C136.517 4.66667 137.637 7.46667 137.637 11.2V50.176L157.461 28.336C158.432 27.2907 159.552 26.432 160.821 25.76C162.165 25.088 163.509 24.6773 164.853 24.528C166.272 24.304 167.691 24.3787 169.109 24.752C170.528 25.0507 171.835 25.648 173.029 26.544C174.224 27.44 175.157 28.56 175.829 29.904C176.501 31.248 176.875 32.6667 176.949 34.16C177.099 35.5787 176.949 36.9973 176.501 38.416C176.053 39.8347 175.307 41.0293 174.261 42L159.477 56.224L184.229 94.64H158.917L144.357 70.672L137.637 77.168V94.64H115.237V11.2Z" fill="#FFD7C2"/>
<path id="Subtract" d="M80.1354 36.624C80.1354 32.7413 81.2554 29.904 83.4954 28.112C85.8101 26.32 88.5354 25.424 91.6714 25.424C94.8074 25.424 97.4954 26.32 99.7354 28.112C102.05 29.904 103.207 32.7413 103.207 36.624V94.64H80.1354V36.624ZM80.0234 10.304C80.0234 6.64533 81.1808 4.032 83.4954 2.464C85.8101 0.821335 88.5354 0 91.6714 0C94.8074 0 97.5328 0.821335 99.8474 2.464C102.162 4.032 103.319 6.64533 103.319 10.304C103.319 12.1707 102.983 13.776 102.311 15.12C101.714 16.3893 100.893 17.4347 99.8474 18.256C98.8021 19.0773 97.5701 19.6747 96.1514 20.048C94.7328 20.4213 93.2394 20.608 91.6714 20.608C90.1034 20.608 88.6101 20.4213 87.1914 20.048C85.7728 19.6747 84.5408 19.0773 83.4954 18.256C82.4501 17.4347 81.5914 16.3893 80.9194 15.12C80.3221 13.776 80.0234 12.1707 80.0234 10.304Z" fill="#FFD7C2"/>
<path id="Vector_2" d="M23.1423 67.984V94.64H0.0703125V22.176C0.0703125 18.9653 0.33165 16.24 0.854317 14C1.45165 11.76 2.42232 9.93065 3.76632 8.51198C5.11032 7.09331 6.90232 6.08531 9.14232 5.48798C11.3823 4.81598 14.1823 4.47998 17.5423 4.47998H37.0303C41.8837 4.47998 46.3637 5.11465 50.4703 6.38398C54.577 7.57865 58.1237 9.44531 61.1103 11.984C64.097 14.448 66.4117 17.6213 68.0543 21.504C69.7717 25.3866 70.6303 29.9786 70.6303 35.28V37.184C70.6303 42.4853 69.7717 47.0773 68.0543 50.96C66.4117 54.8426 64.097 58.0533 61.1103 60.592C58.1237 63.056 54.577 64.9226 50.4703 66.192C46.3637 67.3867 41.8837 67.984 37.0303 67.984H23.1423ZM23.1423 48.496H35.9103C37.777 48.496 39.4197 48.1973 40.8383 47.6C42.3317 46.928 43.5637 46.032 44.5343 44.912C45.5797 43.792 46.3637 42.5226 46.8863 41.104C47.409 39.6853 47.6703 38.192 47.6703 36.624V35.84C47.6703 34.272 47.409 32.7786 46.8863 31.36C46.3637 29.9413 45.5797 28.672 44.5343 27.552C43.5637 26.432 42.3317 25.5733 40.8383 24.976C39.4197 24.304 37.777 23.968 35.9103 23.968H26.3903C25.121 23.968 24.2623 24.192 23.8143 24.64C23.3663 25.0133 23.1423 25.872 23.1423 27.216V48.496Z" fill="#FFD7C2"/>
<path id="Subtract_2" d="M188.745 36.624C188.745 32.7413 189.865 29.904 192.105 28.112C194.419 26.32 197.145 25.424 200.281 25.424C203.417 25.424 206.105 26.32 208.345 28.112C210.659 29.904 211.817 32.7413 211.817 36.624V94.64H188.745V36.624ZM188.633 10.304C188.633 6.64533 189.79 4.032 192.105 2.464C194.419 0.821335 197.145 0 200.281 0C203.417 0 206.142 0.821335 208.457 2.464C210.771 4.032 211.929 6.64533 211.929 10.304C211.929 12.1707 211.593 13.776 210.921 15.12C210.323 16.3893 209.502 17.4347 208.457 18.256C207.411 19.0773 206.179 19.6747 204.761 20.048C203.342 20.4213 201.849 20.608 200.281 20.608C198.713 20.608 197.219 20.4213 195.801 20.048C194.382 19.6747 193.15 19.0773 192.105 18.256C191.059 17.4347 190.201 16.3893 189.529 15.12C188.931 13.776 188.633 12.1707 188.633 10.304Z" fill="#FFD7C2"/>
</g>
</svg>
