<svg width="297" height="194" viewBox="0 0 297 194" fill="none" xmlns="http://www.w3.org/2000/svg">
<path d="M90.9492 7.15039C90.9316 12.0898 89.7363 16.1943 83.7598 19.1914L82.5293 17.5039C85.2012 16.1768 86.792 14.6914 87.6973 12.916L82.9688 13.3555L82.6875 11.4395L88.374 11.0967C88.541 10.4199 88.6553 9.69922 88.708 8.94336H83.5312V7.15039H90.9492ZM92.9707 21.582V5.62109H95.2207V11.7559H97.4883V13.6016H95.2207V21.582H92.9707ZM111.199 13.0215V14.8145H99.8789V6.95703H111.076V8.76758H102.094V13.0215H111.199ZM98.1562 19.666V17.8203H112.799V19.666H98.1562ZM128.338 12.793V14.4629H113.695V12.793H128.338ZM115.365 16.8008V15.2539H126.58V19.0332H117.615V19.9473H127.055V21.4766H115.383V17.6094H124.365V16.8008H115.365ZM115.488 7.43164V5.90234H126.562V9.66406H117.756V10.5254H126.844V12.0371H115.523V8.24023H124.312V7.43164H115.488ZM142.629 6.9043V8.73242H139.421C139.535 10.3584 140.695 11.9229 143.086 12.5996L142.031 14.3574C140.238 13.8477 138.99 12.793 138.287 11.4482C137.584 12.9336 136.301 14.085 134.438 14.6387L133.312 12.8984C135.773 12.1777 136.969 10.499 137.109 8.73242H133.893V6.9043H142.629ZM133.225 16.748C134.394 16.748 135.738 16.7568 137.145 16.7305V13.9707H139.395V16.6514C140.634 16.5898 141.873 16.4844 143.033 16.3262L143.191 17.9434C139.816 18.5762 136.222 18.5586 133.523 18.5762L133.225 16.748ZM143.877 21.6172V5.62109H146.127V11.9316H148.307V13.8125H146.127V21.6172H143.877ZM163.6 14.5684V16.3965H157.342V21.6348H155.127V16.3965H148.957V14.5684H163.6ZM150.434 9.78711C150.425 7.56348 152.798 6.15723 156.234 6.14844C159.671 6.15723 162.07 7.56348 162.07 9.78711C162.07 11.958 159.671 13.3555 156.234 13.3555C152.798 13.3555 150.425 11.958 150.434 9.78711ZM152.736 9.78711C152.728 10.9297 154.09 11.5713 156.234 11.5801C158.396 11.5713 159.75 10.9297 159.75 9.78711C159.75 8.60059 158.396 7.9502 156.234 7.94141C154.09 7.9502 152.728 8.60059 152.736 9.78711ZM179.174 17.9961V19.8418H164.531V17.9961H170.701V15.5879H166.219V10.209H175.271V8.45117H166.201V6.6582H177.486V11.9668H168.469V13.7598H177.855V15.5879H172.934V17.9961H179.174ZM192.867 6.41211V13.1621H185.045V6.41211H192.867ZM186.908 21.5117V17.1172H195.416V16.1328H186.908V14.3926H197.613V18.6992H189.141V19.7363H198.035V21.5117H186.908ZM187.26 11.4395H190.635V8.20508H187.26V11.4395ZM195.381 13.707V5.62109H197.613V13.707H195.381ZM204.205 6.74609C206.367 6.74609 207.984 8.52148 208.301 11.4043H211.078V5.62109H213.293V21.6523H211.078V13.1973H208.327C208.09 16.2734 206.438 18.1543 204.205 18.1543C201.779 18.1543 200.039 15.957 200.057 12.4414C200.039 8.95215 201.779 6.74609 204.205 6.74609ZM202.201 12.4414C202.192 14.8232 203.01 16.124 204.205 16.1152C205.409 16.124 206.209 14.8232 206.209 12.4414C206.209 10.0684 205.409 8.76758 204.205 8.76758C203.01 8.76758 202.192 10.0684 202.201 12.4414ZM105.003 42.0957V43.9238H98.7627V48.6172H96.5479V43.9238H90.3604V42.0957H105.003ZM92.2061 40.9355V33.2715H103.263V35.0293H94.4033V36.2246H102.929V37.9473H94.4033V39.1602H103.438V40.9355H92.2061ZM120.577 45.0488V46.8418H105.935V45.0488H109.573V42.0078H107.147V40.1973H109.292V35.6973H107.077V33.9043H119.347V35.6973H117.097V40.1973H119.276V42.0078H116.868V45.0488H120.577ZM111.542 40.1973H114.882V35.6973H111.542V40.1973ZM111.823 45.0488H114.618V42.0078H111.823V45.0488ZM134.183 32.5859V36.0664H136.345V37.8594H134.183V41.252H131.933V32.5859H134.183ZM121.491 35.5215V33.8164H125.13V32.5156H127.362V33.8164H130.983V35.5215H121.491ZM122.265 38.5273C122.265 36.9277 123.855 35.917 126.237 35.9082C128.637 35.917 130.175 36.9277 130.175 38.5273C130.175 40.1621 128.637 41.1377 126.237 41.1465C123.855 41.1377 122.265 40.1621 122.265 38.5273ZM123.565 43.5195V41.9023H134.183V45.9453H125.798V46.8594H134.64V48.5117H123.601V44.416H131.95V43.5195H123.565ZM124.462 38.5273C124.453 39.2129 125.13 39.5381 126.237 39.5469C127.354 39.5381 128.048 39.2129 128.048 38.5273C128.048 37.8506 127.354 37.4814 126.237 37.4902C125.13 37.4814 124.453 37.8506 124.462 38.5273ZM149.687 33.8691C149.678 35.7588 151.611 37.8418 155.276 38.2988L154.397 40.1094C151.603 39.7051 149.555 38.4131 148.509 36.6816C147.454 38.4043 145.415 39.7051 142.655 40.1094L141.759 38.2988C145.397 37.8418 147.322 35.7588 147.331 33.8691V33.0957H149.687V33.8691ZM141.196 43.1504V41.3223H155.786V43.1504H149.563V48.6172H147.349V43.1504H141.196ZM166.72 42.8867C166.72 44.1699 167.265 45.5059 168.557 46.3848C169.884 45.4443 170.464 44.0732 170.464 42.8867V42.3418H172.679V42.8867C172.661 44.5566 173.549 46.0947 175.685 46.7539L174.595 48.3887C173.065 47.8701 172.063 46.8945 171.51 45.6553C170.982 46.8945 170.051 47.9668 168.618 48.5293C167.115 47.9844 166.175 46.9473 165.656 45.7168C165.085 46.9033 164.101 47.8701 162.642 48.3887L161.534 46.7539C163.635 46.0332 164.531 44.4424 164.54 42.8867V42.3418H166.72V42.8867ZM161.147 37.2969C161.147 35.0293 163.028 33.4473 165.524 33.4473C168.012 33.4473 169.893 35.0293 169.901 37.2969C169.893 39.5205 168.012 41.1201 165.524 41.1113C163.028 41.1201 161.147 39.5205 161.147 37.2969ZM163.345 37.2969C163.327 38.501 164.241 39.2568 165.524 39.248C166.772 39.2568 167.678 38.501 167.687 37.2969C167.678 36.0576 166.772 35.3281 165.524 35.3281C164.241 35.3281 163.327 36.0576 163.345 37.2969ZM172.046 41.6738V32.6387H174.296V41.6738H172.046ZM180.87 33.7461C183.032 33.7461 184.649 35.5215 184.966 38.4043H187.743V32.6211H189.958V48.6523H187.743V40.1973H184.992C184.755 43.2734 183.103 45.1543 180.87 45.1543C178.444 45.1543 176.704 42.957 176.722 39.4414C176.704 35.9521 178.444 33.7461 180.87 33.7461ZM178.866 39.4414C178.857 41.8232 179.675 43.124 180.87 43.1152C182.074 43.124 182.874 41.8232 182.874 39.4414C182.874 37.0684 182.074 35.7676 180.87 35.7676C179.675 35.7676 178.857 37.0684 178.866 39.4414ZM206.657 44.9082V46.7539H192.015V44.9082H195.284V40.9883C194.045 40.2412 193.298 39.1074 193.298 37.7012C193.298 35.1084 195.829 33.4033 199.31 33.3945C202.772 33.4033 205.33 35.1084 205.339 37.7012C205.33 39.0811 204.609 40.1973 203.405 40.9443V44.9082H206.657ZM195.513 37.7012C195.513 39.2656 197.016 40.2324 199.31 40.2324C201.568 40.2324 203.115 39.2656 203.124 37.7012C203.115 36.0928 201.568 35.1611 199.31 35.1699C197.016 35.1611 195.513 36.0928 195.513 37.7012ZM197.499 44.9082H201.138V41.7969C200.566 41.9111 199.951 41.9727 199.31 41.9727C198.668 41.9727 198.062 41.9111 197.499 41.8057V44.9082Z" fill="white"/>
<g opacity="0.1">
<rect x="213" y="76.459" width="52" height="67" rx="7" fill="white"/>
</g>
<rect x="228" y="83.459" width="52" height="67" rx="7" transform="rotate(-15 228 83.459)" fill="white"/>
<path d="M262.5 102.071C266.859 102.071 270.341 105.554 270.341 109.912C270.341 114.271 266.859 117.753 262.5 117.753C258.141 117.753 254.659 114.271 254.659 109.912C254.659 105.554 258.141 102.071 262.5 102.071ZM262.5 98.6621C256.263 98.6621 251.25 103.675 251.25 109.912C251.25 116.149 256.263 121.162 262.5 121.162C268.737 121.162 273.75 116.149 273.75 109.912C273.75 103.675 268.737 98.6621 262.5 98.6621Z" fill="#9C61FF" stroke="#9C61FF" stroke-width="1.5"/>
<g opacity="0.1">
<rect x="32" y="76.459" width="52" height="67" rx="7" fill="white"/>
</g>
<rect x="18.3408" y="70.459" width="52" height="67" rx="7" transform="rotate(15 18.3408 70.459)" fill="white"/>
<path d="M28.9764 101.047L38.1686 116.968" stroke="#FF5B5B" stroke-width="5" stroke-linecap="round"/>
<path d="M41.5334 104.412L25.6118 113.604" stroke="#FF5B5B" stroke-width="5" stroke-linecap="round"/>
<path opacity="0.4" d="M7.5 158.1C50.3617 138.762 97.924 128 148 128C198.076 128 245.638 138.762 288.5 158.1" stroke="url(#paint0_linear_2212_36765)" stroke-width="13" stroke-linecap="round"/>
<g clip-path="url(#clip0_2212_36765)">
<path d="M21.1955 181.582C17.5928 178.794 13.337 179.377 12.1261 179.03C10.9152 178.683 9.98622 177.27 10.3111 175.886C10.731 174.098 12.0386 173.74 13.8096 173.758C14.4085 173.764 16.4498 173.894 16.4498 173.894L10.905 164.29C9.8503 162.463 10.4772 161.025 11.4818 160.445C12.4864 159.865 14.2841 160.174 15.2216 161.798L17.6258 165.962C17.6258 165.962 17.4989 164.52 19.055 163.621C20.6112 162.723 21.8686 163.873 21.8686 163.873C21.8686 163.873 21.7743 162.944 23.2222 162.108C24.5889 161.319 25.9882 162.415 25.9882 162.415C25.9882 162.415 26.1814 161.609 27.3992 160.906C28.3329 160.367 30.7387 160.737 31.559 162.158C35.1043 168.298 39.6104 177.506 31.4756 182.203C29.3242 183.457 24.7982 184.37 21.1955 181.582Z" fill="#FFD7C2"/>
<path d="M12.2388 164.632C11.1078 162.673 10.9129 161.336 11.0718 160.764C10.3338 161.465 10.0101 162.74 10.9097 164.299L15.7624 172.704C16.0609 173.2 16.3233 173.644 16.522 173.988C16.9204 174.678 17.7906 174.248 17.3609 173.504L12.2388 164.632Z" fill="#F1B99B"/>
<path d="M17.6258 165.962L19.3768 169.011C19.5149 169.25 19.8207 169.332 20.0599 169.194C20.299 169.056 20.3809 168.75 20.2429 168.511L17.997 164.621C17.569 165.317 17.6258 165.962 17.6258 165.962Z" fill="#F1B99B"/>
<path d="M21.8686 163.874C21.8686 163.874 21.8168 163.363 22.3796 162.759L23.844 165.295C23.9821 165.534 23.9002 165.84 23.661 165.978C23.4219 166.116 23.1161 166.034 22.978 165.795L21.8686 163.874Z" fill="#F1B99B"/>
<path d="M25.9882 162.415C25.9882 162.415 25.9828 162.411 25.9722 162.403L27.6768 165.356C27.8149 165.595 28.1207 165.677 28.3598 165.539C28.5989 165.401 28.6809 165.095 28.5428 164.856L26.6035 161.497C26.0889 161.995 25.9882 162.415 25.9882 162.415Z" fill="#F1B99B"/>
</g>
<g clip-path="url(#clip1_2212_36765)">
<path d="M275.805 181.582C279.407 178.794 283.663 179.377 284.874 179.03C286.085 178.683 287.014 177.27 286.689 175.886C286.269 174.098 284.961 173.74 283.19 173.758C282.592 173.764 280.55 173.894 280.55 173.894L286.095 164.29C287.15 162.463 286.523 161.025 285.518 160.445C284.514 159.865 282.716 160.174 281.778 161.798L279.374 165.962C279.374 165.962 279.501 164.52 277.945 163.621C276.389 162.723 275.131 163.873 275.131 163.873C275.131 163.873 275.226 162.944 273.778 162.108C272.411 161.319 271.012 162.415 271.012 162.415C271.012 162.415 270.819 161.609 269.601 160.906C268.667 160.367 266.261 160.737 265.441 162.158C261.896 168.298 257.39 177.506 265.524 182.203C267.676 183.457 272.202 184.37 275.805 181.582Z" fill="#FFD7C2"/>
<path d="M284.761 164.632C285.892 162.673 286.087 161.336 285.928 160.764C286.666 161.465 286.99 162.74 286.09 164.299L281.238 172.704C280.939 173.2 280.677 173.644 280.478 173.988C280.08 174.678 279.209 174.248 279.639 173.504L284.761 164.632Z" fill="#F1B99B"/>
<path d="M279.374 165.962L277.623 169.011C277.485 169.25 277.179 169.332 276.94 169.194C276.701 169.056 276.619 168.75 276.757 168.511L279.003 164.621C279.431 165.317 279.374 165.962 279.374 165.962Z" fill="#F1B99B"/>
<path d="M275.131 163.874C275.131 163.874 275.183 163.363 274.62 162.759L273.156 165.295C273.018 165.534 273.1 165.84 273.339 165.978C273.578 166.116 273.884 166.034 274.022 165.795L275.131 163.874Z" fill="#F1B99B"/>
<path d="M271.012 162.415C271.012 162.415 271.017 162.411 271.028 162.403L269.323 165.356C269.185 165.595 268.879 165.677 268.64 165.539C268.401 165.401 268.319 165.095 268.457 164.856L270.397 161.497C270.911 161.995 271.012 162.415 271.012 162.415Z" fill="#F1B99B"/>
</g>
<defs>
<linearGradient id="paint0_linear_2212_36765" x1="7.5" y1="143.05" x2="288.5" y2="143.05" gradientUnits="userSpaceOnUse">
<stop stop-color="white"/>
<stop offset="0.4" stop-color="white" stop-opacity="0"/>
<stop offset="0.6" stop-color="white" stop-opacity="0"/>
<stop offset="1" stop-color="white"/>
</linearGradient>
<clipPath id="clip0_2212_36765">
<rect width="32" height="32" fill="white" transform="translate(43.7129 177.459) rotate(150)"/>
</clipPath>
<clipPath id="clip1_2212_36765">
<rect width="32" height="32" fill="white" transform="matrix(0.866025 0.5 0.5 -0.866025 253.287 177.459)"/>
</clipPath>
</defs>
</svg>
