<svg width="146" height="135" viewBox="0 0 146 135" fill="none" xmlns="http://www.w3.org/2000/svg">
<path d="M77.1641 36.0547L73.2852 39.9219L69.418 36.0547L70.1562 35.293L72.7461 37.8945L72.7461 31.3906L73.8242 31.3906L73.8242 37.8945L76.4141 35.293L77.1641 36.0547Z" fill="white"/>
<path d="M12.3594 5.26562V12.4219H10.625V11.1875H7.21875V9.85938H10.625V8.46875H7.39844C6.52344 10.625 4.45312 12.0312 1.32812 12.7344L0.71875 11.3125C4.03906 10.6172 5.69531 9.15625 5.9375 7.28125H1.5V5.875H7.875C7.875 6.32031 7.83594 6.74219 7.77344 7.14062H10.625V5.26562H12.3594ZM3.0625 14.3438V12.9688H12.3594V16.6875H4.8125V17.8594H12.7344V19.25H3.07812V15.3906H10.625V14.3438H3.0625ZM26.1875 5.26562V13.6562H24.4531V10.2031H22.0469V8.78125H24.4531V5.26562H26.1875ZM14.3125 12.25C16.5859 11.4688 17.7812 9.57031 17.7812 7.70312V7.59375H14.8438V6.1875H22.4688V7.59375H19.5469V7.6875C19.5469 9.40625 20.6875 11.1406 22.875 11.875L22 13.25C20.4297 12.7188 19.3203 11.6406 18.6953 10.3125C18.0781 11.8125 16.8984 13.0312 15.2188 13.625L14.3125 12.25ZM16.6094 16.7031C16.5938 15.0078 18.4297 14.0156 21.4062 14.0156C24.3984 14.0156 26.2266 15.0078 26.2344 16.7031C26.2266 18.3984 24.3984 19.3828 21.4062 19.3906C18.4297 19.3828 16.5938 18.3984 16.6094 16.7031ZM18.3281 16.7031C18.3203 17.5781 19.4453 18.0547 21.4062 18.0469C23.3828 18.0547 24.5 17.5781 24.5 16.7031C24.5 15.8203 23.3828 15.3438 21.4062 15.3438C19.4453 15.3438 18.3203 15.8203 18.3281 16.7031ZM39.25 5.26562V10.8906H41.4219V12.3281H39.25V19.3906H37.5312V5.26562H39.25ZM28.1094 8.82812V7.4375H31.4531V5.46875H33.1875V7.4375H36.4375V8.82812H28.1094ZM28.7656 13.0781C28.75 11.125 30.2656 9.74219 32.3281 9.75C34.3594 9.74219 35.8672 11.125 35.875 13.0781C35.8672 15.0234 34.3594 16.3906 32.3281 16.3906C30.2656 16.3906 28.75 15.0234 28.7656 13.0781ZM30.4219 13.0781C30.4141 14.2266 31.2188 14.9609 32.3281 14.9531C33.4141 14.9609 34.2031 14.2266 34.2188 13.0781C34.2031 11.9297 33.4141 11.1719 32.3281 11.1719C31.2188 11.1719 30.4141 11.9297 30.4219 13.0781ZM53.8125 5.26562V19.3906H52.0625V5.26562H53.8125ZM42.1094 15.5C45.8125 13.7422 47.5156 11.3516 47.8281 8.14062H42.8281V6.76562H49.5938C49.5938 10.9688 47.9609 14.5391 43.0156 16.8906L42.1094 15.5ZM71.4062 5.26562V13.8125H69.6562V5.26562H71.4062ZM59.8125 8.01562V6.625H63.25V5.17188H65V6.625H68.4062V8.01562H59.8125ZM60.6094 11.0625C60.6016 9.52344 62.0156 8.53125 64.125 8.53125C66.2422 8.53125 67.6406 9.52344 67.6406 11.0625C67.6406 12.6094 66.2422 13.5938 64.125 13.5938C62.0156 13.5938 60.6016 12.6094 60.6094 11.0625ZM62.0312 19.2188V14.4531H71.4062V19.2188H62.0312ZM62.2656 11.0625C62.2656 11.8516 62.9844 12.2969 64.125 12.2969C65.2578 12.2969 65.9766 11.8516 65.9844 11.0625C65.9766 10.2734 65.2578 9.82031 64.125 9.82812C62.9844 9.82031 62.2656 10.2734 62.2656 11.0625ZM63.75 17.8125H69.7031V15.8281H63.75V17.8125ZM86.3594 10.9219V12.2969H73.4688V10.9219H86.3594ZM74.9844 14.5781V13.2656H84.7344V16.8125H76.7031V17.8906H85.125V19.25H75V15.5625H83.0312V14.5781H74.9844ZM75.1094 10.0156V5.625H84.7031V7.01562H76.8438V8.64062H84.8281V10.0156H75.1094ZM94.5469 6.45312V7.57812H97.3906V5.28125H99.125V15.5625H97.3906V12H94.5469V13.2188H87.9062V6.45312H94.5469ZM89.6406 11.8594H92.8281V7.82812H89.6406V11.8594ZM89.8125 19.1094V14.6094H91.5781V17.7031H99.4375V19.1094H89.8125ZM94.5469 10.6094H97.3906V9H94.5469V10.6094ZM116.328 8.3125V9.70312H106.578V5.45312H108.281V8.3125H116.328ZM104.906 12.0625V10.6562H117.812V12.0625H112.188V13.2969H116.234V16.8125H108.203V17.9219H116.703V19.2656H106.453V15.5938H114.516V14.6094H106.438V13.2969H110.484V12.0625H104.906ZM130.578 5.26562V19.4062H128.844V11.8906H126.422V10.4688H128.844V5.26562H130.578ZM119.219 7.90625V6.5H125.609V11.6719H120.984V14.6406C123.086 14.6328 124.773 14.5625 126.672 14.2188L126.812 15.6406C124.711 16.0078 122.82 16.0859 120.391 16.0938H119.266V10.2656H123.906V7.90625H119.219ZM145.484 16.25V17.6719H132.578V16.25H135.562V12.6797C134.438 12.0312 133.758 11.0156 133.766 9.76562C133.758 7.51562 135.961 6.03125 139 6.03125C142.055 6.03125 144.273 7.51562 144.266 9.76562C144.273 11 143.609 11.9922 142.516 12.6406V16.25H145.484ZM135.469 9.76562C135.461 11.2109 136.891 12.1328 139 12.125C141.102 12.1328 142.562 11.2109 142.562 9.76562C142.562 8.29688 141.102 7.39844 139 7.40625C136.891 7.39844 135.461 8.29688 135.469 9.76562ZM137.281 16.25H140.75V13.3047C140.211 13.4219 139.625 13.4844 139 13.4844C138.391 13.4844 137.812 13.4219 137.281 13.3125V16.25Z" fill="white"/>
<g filter="url(#filter0_d_2212_36761)">
<rect x="49" y="57" width="52" height="52" rx="18" fill="white"/>
<path d="M74.7031 86.9688V88.9844H61.5V86.9688H66.8438V84.5781H62.7969V76.9531H65.3125V78.9688H70.8281V76.9531H73.3281V84.5781H69.3281V86.9688H74.7031ZM65.3125 82.5938H70.8281V80.9375H65.3125V82.5938ZM88.5156 84.5V86.4375H85.75V90.5469H83.2031V86.4375H80.6719V90.5469H78.1562V86.4375H75.3281V84.5H88.5156ZM76.7969 78.4688V76.4688H87.0625V80.9844H79.375V81.75H87.4062V83.75H76.8438V79.1875H84.4688V78.4688H76.7969Z" fill="#7C797A"/>
</g>
<defs>
<filter id="filter0_d_2212_36761" x="29" y="43" width="92" height="92" filterUnits="userSpaceOnUse" color-interpolation-filters="sRGB">
<feFlood flood-opacity="0" result="BackgroundImageFix"/>
<feColorMatrix in="SourceAlpha" type="matrix" values="0 0 0 0 0 0 0 0 0 0 0 0 0 0 0 0 0 0 127 0" result="hardAlpha"/>
<feOffset dy="6"/>
<feGaussianBlur stdDeviation="10"/>
<feComposite in2="hardAlpha" operator="out"/>
<feColorMatrix type="matrix" values="0 0 0 0 0.545098 0 0 0 0 0.584314 0 0 0 0 0.631373 0 0 0 0.1 0"/>
<feBlend mode="normal" in2="BackgroundImageFix" result="effect1_dropShadow_2212_36761"/>
<feBlend mode="normal" in="SourceGraphic" in2="effect1_dropShadow_2212_36761" result="shape"/>
</filter>
</defs>
</svg>
